<svg width="16" height="16" fill="none" xmlns="http://www.w3.org/2000/svg"><rect x=".5" y=".5" width="15" height="15" rx="3.5" stroke="#CACFDB"/><path fill-rule="evenodd" clip-rule="evenodd" d="M5.83 12a.673.673 0 0 1-.65-.496L4.023 7.19a.665.665 0 0 1 .26-.716l3.34-2.35a.679.679 0 0 1 .78 0l3.313 2.33c.242.171.344.479.249.758l-1.466 4.332a.673.673 0 0 1-.64.456H5.832Zm2.214-6.003a.496.496 0 0 0-.498.494v1.974c0 .273.223.494.498.494a.496.496 0 0 0 .498-.494V6.491a.496.496 0 0 0-.498-.494Zm0 4.443a.496.496 0 0 0 .498-.493.496.496 0 0 0-.498-.494.496.496 0 0 0-.498.494c0 .272.223.493.498.493Z" fill="#E2005E"/></svg>