<svg width="16" height="16" fill="none" xmlns="http://www.w3.org/2000/svg"><rect x=".5" y=".5" width="15" height="15" rx="3.5" stroke="#CACFDB"/><path fill-rule="evenodd" clip-rule="evenodd" d="M8.583 4.37a.653.653 0 0 0-1.177 0l-3.33 6.625c-.23.458.09 1.005.588 1.005h6.671c.499 0 .82-.548.589-1.006L8.583 4.37ZM8 6.501a.507.507 0 0 0-.498.515v1.71c0 .284.223.515.498.515s.498-.23.498-.515v-1.71A.507.507 0 0 0 8 6.502Zm0 4.296c.275 0 .498-.23.498-.516A.507.507 0 0 0 8 9.767a.507.507 0 0 0-.498.515c0 .285.223.516.498.516Z" fill="#FE7B1F"/></svg>